<?xml version="1.0" encoding="utf-8" standalone="no"?>
<!DOCTYPE svg PUBLIC "-//W3C//DTD SVG 1.1//EN"
  "http://www.w3.org/Graphics/SVG/1.1/DTD/svg11.dtd">
<svg xmlns:xlink="http://www.w3.org/1999/xlink" width="573.935843pt" height="439.272168pt" viewBox="0 0 573.935843 439.272168" xmlns="http://www.w3.org/2000/svg" version="1.1">
 <metadata>
  <rdf:RDF xmlns:dc="http://purl.org/dc/elements/1.1/" xmlns:cc="http://creativecommons.org/ns#" xmlns:rdf="http://www.w3.org/1999/02/22-rdf-syntax-ns#">
   <cc:Work>
    <dc:type rdf:resource="http://purl.org/dc/dcmitype/StillImage"/>
    <dc:date>2026-07-21T22:12:54.514314</dc:date>
    <dc:format>image/svg+xml</dc:format>
    <dc:creator>
     <cc:Agent>
      <dc:title>Matplotlib v3.11.0, https://matplotlib.org/</dc:title>
     </cc:Agent>
    </dc:creator>
   </cc:Work>
  </rdf:RDF>
 </metadata>
 <defs>
  <style type="text/css">*{stroke-linejoin: round; stroke-linecap: butt}</style>
 </defs>
 <g id="figure_1">
  <g id="patch_1">
   <path d="M 0 439.272168 
L 573.935843 439.272168 
L 573.935843 0 
L 0 0 
z
" style="fill: #ffffff"/>
  </g>
  <g id="axes_1">
   <g id="patch_2">
    <path d="M 240.199364 295.768259 
C 275.209264 295.767209 308.789762 289.095879 333.545143 277.223552 
C 358.300524 265.351226 372.209621 249.247225 372.209118 232.45827 
C 372.208614 215.669315 358.298551 199.566149 333.542457 187.695308 
C 308.786364 175.824466 275.205466 169.155151 240.195566 169.156202 
C 205.185667 169.157252 171.605169 175.828582 146.849788 187.700909 
C 122.094407 199.573235 108.185309 215.677236 108.185813 232.466191 
C 108.186316 249.255146 122.09638 265.358312 146.852474 277.229153 
C 171.608567 289.099995 205.189465 295.76931 240.199364 295.768259 
z
" clip-path="url(#p0258fb7652)" style="fill: #c56b76; opacity: 0.46; stroke: #c56b76; stroke-width: 2.2; stroke-linejoin: miter"/>
   </g>
   <g id="patch_3">
    <path d="M 209.989694 300.326818 
C 236.883882 308.659133 265.134775 308.728596 288.52044 300.519908 
C 311.906105 292.311219 328.517207 276.494583 334.695344 256.55343 
C 340.87348 236.612277 336.114234 214.174713 321.465773 194.182352 
C 306.817312 174.189991 283.475619 158.27512 256.581431 149.942805 
C 229.687242 141.61049 201.43635 141.541028 178.050685 149.749716 
C 154.665019 157.958404 138.053917 173.77504 131.875781 193.716194 
C 125.697644 213.657347 130.456891 236.094911 145.105351 256.087272 
C 159.753812 276.079633 183.095505 291.994503 209.989694 300.326818 
z
" clip-path="url(#p0258fb7652)" style="fill: #8e3743; opacity: 0.46; stroke: #8e3743; stroke-width: 2.2; stroke-linejoin: miter"/>
   </g>
   <g id="patch_4">
    <path d="M 307.191823 245.566743 
C 319.427489 245.550225 331.155733 239.661907 339.793545 229.198622 
C 348.431358 218.735338 353.2735 204.551368 353.253546 189.770568 
C 353.233592 174.989767 348.353171 160.818923 339.687139 150.378999 
C 331.021107 139.939074 319.277007 134.082444 307.041342 134.098962 
C 294.805676 134.11548 283.077432 140.003798 274.43962 150.467083 
C 265.801807 160.930367 260.959665 175.114337 260.979619 189.895137 
C 260.999573 204.675938 265.879994 218.846782 274.546026 229.286706 
C 283.212058 239.726631 294.956158 245.583261 307.191823 245.566743 
z
" clip-path="url(#p0258fb7652)" style="fill: #a4564a; opacity: 0.46; stroke: #a4564a; stroke-width: 2.2; stroke-linejoin: miter"/>
   </g>
   <g id="patch_5">
    <path d="M 362.936845 306.054715 
C 388.734285 311.854953 414.819839 311.453054 435.448466 304.937531 
C 456.077094 298.422008 469.564558 286.324824 472.940402 271.310245 
C 476.316246 256.295665 469.304848 239.589564 453.450385 224.871265 
C 437.595923 210.152966 414.192843 198.624154 388.395403 192.823916 
C 362.597963 187.023678 336.512409 187.425577 315.883782 193.9411 
C 295.255154 200.456623 281.76769 212.553807 278.391846 227.568386 
C 275.016002 242.582966 282.0274 259.289067 297.881863 274.007366 
C 313.736325 288.725665 337.139405 300.254477 362.936845 306.054715 
z
" clip-path="url(#p0258fb7652)" style="fill: #6e4368; opacity: 0.46; stroke: #6e4368; stroke-width: 2.2; stroke-linejoin: miter"/>
   </g>
   <g id="text_1">
    <!-- 2 -->
    <g style="fill: #101010" transform="translate(274.047072 196.026048) scale(0.19 -0.19)">
     <defs>
      <path id="DejaVuSans-Bold-15" d="M 1844 884 
L 3897 884 
L 3897 0 
L 506 0 
L 506 884 
L 2209 2388 
Q 2438 2594 2547 2791 
Q 2656 2988 2656 3200 
Q 2656 3528 2436 3728 
Q 2216 3928 1850 3928 
Q 1569 3928 1234 3808 
Q 900 3688 519 3450 
L 519 4475 
Q 925 4609 1322 4679 
Q 1719 4750 2100 4750 
Q 2938 4750 3402 4381 
Q 3866 4013 3866 3353 
Q 3866 2972 3669 2642 
Q 3472 2313 2841 1759 
L 1844 884 
z
" transform="scale(0.015625)"/>
     </defs>
     <use xlink:href="#DejaVuSans-Bold-15"/>
    </g>
   </g>
   <g id="text_2">
    <!-- 2 -->
    <g style="fill: #101010" transform="translate(267.586408 169.338862) scale(0.19 -0.19)">
     <use xlink:href="#DejaVuSans-Bold-15"/>
    </g>
   </g>
   <g id="text_3">
    <!-- 2 -->
    <g style="fill: #101010" transform="translate(333.628748 208.862922) scale(0.19 -0.19)">
     <use xlink:href="#DejaVuSans-Bold-15"/>
    </g>
   </g>
   <g id="text_4">
    <!-- 1 -->
    <g style="fill: #101010" transform="translate(302.761132 227.442608) scale(0.19 -0.19)">
     <defs>
      <path id="DejaVuSans-Bold-14" d="M 750 831 
L 1813 831 
L 1813 3847 
L 722 3622 
L 722 4441 
L 1806 4666 
L 2950 4666 
L 2950 831 
L 4013 831 
L 4013 0 
L 750 0 
L 750 831 
z
" transform="scale(0.015625)"/>
     </defs>
     <use xlink:href="#DejaVuSans-Bold-14"/>
    </g>
   </g>
   <g id="text_5">
    <!-- 1 -->
    <g style="fill: #101010" transform="translate(189.699518 163.933862) scale(0.19 -0.19)">
     <use xlink:href="#DejaVuSans-Bold-14"/>
    </g>
   </g>
   <g id="text_6">
    <!-- 16 -->
    <g style="fill: #101010" transform="translate(192.06274 236.225733) scale(0.19 -0.19)">
     <defs>
      <path id="DejaVuSans-Bold-19" d="M 2316 2303 
Q 2000 2303 1842 2098 
Q 1684 1894 1684 1484 
Q 1684 1075 1842 870 
Q 2000 666 2316 666 
Q 2634 666 2792 870 
Q 2950 1075 2950 1484 
Q 2950 1894 2792 2098 
Q 2634 2303 2316 2303 
z
M 3803 4544 
L 3803 3681 
Q 3506 3822 3243 3889 
Q 2981 3956 2731 3956 
Q 2194 3956 1894 3657 
Q 1594 3359 1544 2772 
Q 1750 2925 1990 3001 
Q 2231 3078 2516 3078 
Q 3231 3078 3670 2659 
Q 4109 2241 4109 1563 
Q 4109 813 3618 361 
Q 3128 -91 2303 -91 
Q 1394 -91 895 523 
Q 397 1138 397 2266 
Q 397 3422 980 4083 
Q 1563 4744 2578 4744 
Q 2900 4744 3203 4694 
Q 3506 4644 3803 4544 
z
" transform="scale(0.015625)"/>
     </defs>
     <use xlink:href="#DejaVuSans-Bold-14"/>
     <use xlink:href="#DejaVuSans-Bold-19" transform="translate(69.578125 0)"/>
    </g>
   </g>
   <g id="text_7">
    <!-- 1 -->
    <g style="fill: #101010" transform="translate(311.016425 163.933862) scale(0.19 -0.19)">
     <use xlink:href="#DejaVuSans-Bold-14"/>
    </g>
   </g>
   <g id="text_8">
    <!-- 2 -->
    <g style="fill: #101010" transform="translate(305.273613 267.642293) scale(0.19 -0.19)">
     <use xlink:href="#DejaVuSans-Bold-15"/>
    </g>
   </g>
   <g id="text_9">
    <!-- 1 -->
    <g style="fill: #101010" transform="translate(115.760812 245.34667) scale(0.19 -0.19)">
     <use xlink:href="#DejaVuSans-Bold-14"/>
    </g>
   </g>
   <g id="text_10">
    <!-- 2 -->
    <g style="fill: #101010" transform="translate(347.626852 242.981982) scale(0.19 -0.19)">
     <use xlink:href="#DejaVuSans-Bold-15"/>
    </g>
   </g>
   <g id="text_11">
    <!-- 9 -->
    <g style="fill: #101010" transform="translate(412.233489 263.926356) scale(0.19 -0.19)">
     <defs>
      <path id="DejaVuSans-Bold-1c" d="M 641 103 
L 641 966 
Q 928 831 1190 764 
Q 1453 697 1709 697 
Q 2247 697 2547 995 
Q 2847 1294 2900 1881 
Q 2688 1725 2447 1647 
Q 2206 1569 1925 1569 
Q 1209 1569 770 1986 
Q 331 2403 331 3084 
Q 331 3838 820 4291 
Q 1309 4744 2131 4744 
Q 3044 4744 3544 4128 
Q 4044 3513 4044 2388 
Q 4044 1231 3459 570 
Q 2875 -91 1856 -91 
Q 1528 -91 1228 -42 
Q 928 6 641 103 
z
M 2125 2350 
Q 2441 2350 2600 2554 
Q 2759 2759 2759 3169 
Q 2759 3575 2600 3781 
Q 2441 3988 2125 3988 
Q 1809 3988 1650 3781 
Q 1491 3575 1491 3169 
Q 1491 2759 1650 2554 
Q 1809 2350 2125 2350 
z
" transform="scale(0.015625)"/>
     </defs>
     <use xlink:href="#DejaVuSans-Bold-1c"/>
    </g>
   </g>
   <g id="text_12">
    <!-- 2 -->
    <g style="fill: #101010" transform="translate(307.427167 290.613542) scale(0.19 -0.19)">
     <use xlink:href="#DejaVuSans-Bold-15"/>
    </g>
   </g>
   <g id="text_13">
    <!-- FVSEOF -->
    <g style="fill: #c56b76" transform="translate(7.2 254.132856) scale(0.19 -0.19)">
     <defs>
      <path id="DejaVuSans-Bold-29" d="M 588 4666 
L 3834 4666 
L 3834 3756 
L 1791 3756 
L 1791 2888 
L 3713 2888 
L 3713 1978 
L 1791 1978 
L 1791 0 
L 588 0 
L 588 4666 
z
" transform="scale(0.015625)"/>
      <path id="DejaVuSans-Bold-39" d="M 31 4666 
L 1241 4666 
L 2478 1222 
L 3713 4666 
L 4922 4666 
L 3194 0 
L 1759 0 
L 31 4666 
z
" transform="scale(0.015625)"/>
      <path id="DejaVuSans-Bold-36" d="M 3834 4519 
L 3834 3531 
Q 3450 3703 3084 3790 
Q 2719 3878 2394 3878 
Q 1963 3878 1756 3759 
Q 1550 3641 1550 3391 
Q 1550 3203 1689 3098 
Q 1828 2994 2194 2919 
L 2706 2816 
Q 3484 2659 3812 2340 
Q 4141 2022 4141 1434 
Q 4141 663 3683 286 
Q 3225 -91 2284 -91 
Q 1841 -91 1394 -6 
Q 947 78 500 244 
L 500 1259 
Q 947 1022 1364 901 
Q 1781 781 2169 781 
Q 2563 781 2772 912 
Q 2981 1044 2981 1288 
Q 2981 1506 2839 1625 
Q 2697 1744 2272 1838 
L 1806 1941 
Q 1106 2091 782 2419 
Q 459 2747 459 3303 
Q 459 4000 909 4375 
Q 1359 4750 2203 4750 
Q 2588 4750 2994 4692 
Q 3400 4634 3834 4519 
z
" transform="scale(0.015625)"/>
      <path id="DejaVuSans-Bold-28" d="M 588 4666 
L 3834 4666 
L 3834 3756 
L 1791 3756 
L 1791 2888 
L 3713 2888 
L 3713 1978 
L 1791 1978 
L 1791 909 
L 3903 909 
L 3903 0 
L 588 0 
L 588 4666 
z
" transform="scale(0.015625)"/>
      <path id="DejaVuSans-Bold-32" d="M 2719 3878 
Q 2169 3878 1866 3472 
Q 1563 3066 1563 2328 
Q 1563 1594 1866 1187 
Q 2169 781 2719 781 
Q 3272 781 3575 1187 
Q 3878 1594 3878 2328 
Q 3878 3066 3575 3472 
Q 3272 3878 2719 3878 
z
M 2719 4750 
Q 3844 4750 4481 4106 
Q 5119 3463 5119 2328 
Q 5119 1197 4481 553 
Q 3844 -91 2719 -91 
Q 1597 -91 958 553 
Q 319 1197 319 2328 
Q 319 3463 958 4106 
Q 1597 4750 2719 4750 
z
" transform="scale(0.015625)"/>
     </defs>
     <use xlink:href="#DejaVuSans-Bold-29"/>
     <use xlink:href="#DejaVuSans-Bold-39" transform="translate(68.3125 0)"/>
     <use xlink:href="#DejaVuSans-Bold-36" transform="translate(145.703125 0)"/>
     <use xlink:href="#DejaVuSans-Bold-28" transform="translate(217.71875 0)"/>
     <use xlink:href="#DejaVuSans-Bold-32" transform="translate(286.03125 0)"/>
     <use xlink:href="#DejaVuSans-Bold-29" transform="translate(371.046875 0)"/>
    </g>
   </g>
   <g id="text_14">
    <!-- FluxRETAP -->
    <g style="fill: #8e3743" transform="translate(83.721945 119.800097) scale(0.19 -0.19)">
     <defs>
      <path id="DejaVuSans-Bold-4f" d="M 538 4863 
L 1656 4863 
L 1656 0 
L 538 0 
L 538 4863 
z
" transform="scale(0.015625)"/>
      <path id="DejaVuSans-Bold-58" d="M 500 1363 
L 500 3500 
L 1625 3500 
L 1625 3150 
Q 1625 2866 1622 2436 
Q 1619 2006 1619 1863 
Q 1619 1441 1641 1255 
Q 1663 1069 1716 984 
Q 1784 875 1895 815 
Q 2006 756 2150 756 
Q 2500 756 2700 1025 
Q 2900 1294 2900 1772 
L 2900 3500 
L 4019 3500 
L 4019 0 
L 2900 0 
L 2900 506 
Q 2647 200 2364 54 
Q 2081 -91 1741 -91 
Q 1134 -91 817 281 
Q 500 653 500 1363 
z
" transform="scale(0.015625)"/>
      <path id="DejaVuSans-Bold-5b" d="M 1422 1791 
L 159 3500 
L 1344 3500 
L 2059 2463 
L 2784 3500 
L 3969 3500 
L 2706 1797 
L 4031 0 
L 2847 0 
L 2059 1106 
L 1281 0 
L 97 0 
L 1422 1791 
z
" transform="scale(0.015625)"/>
      <path id="DejaVuSans-Bold-35" d="M 2297 2597 
Q 2675 2597 2839 2737 
Q 3003 2878 3003 3200 
Q 3003 3519 2839 3656 
Q 2675 3794 2297 3794 
L 1791 3794 
L 1791 2597 
L 2297 2597 
z
M 1791 1766 
L 1791 0 
L 588 0 
L 588 4666 
L 2425 4666 
Q 3347 4666 3776 4356 
Q 4206 4047 4206 3378 
Q 4206 2916 3982 2619 
Q 3759 2322 3309 2181 
Q 3556 2125 3751 1926 
Q 3947 1728 4147 1325 
L 4800 0 
L 3519 0 
L 2950 1159 
Q 2778 1509 2601 1637 
Q 2425 1766 2131 1766 
L 1791 1766 
z
" transform="scale(0.015625)"/>
      <path id="DejaVuSans-Bold-37" d="M 31 4666 
L 4331 4666 
L 4331 3756 
L 2784 3756 
L 2784 0 
L 1581 0 
L 1581 3756 
L 31 3756 
L 31 4666 
z
" transform="scale(0.015625)"/>
      <path id="DejaVuSans-Bold-24" d="M 3419 850 
L 1538 850 
L 1241 0 
L 31 0 
L 1759 4666 
L 3194 4666 
L 4922 0 
L 3713 0 
L 3419 850 
z
M 1838 1716 
L 3116 1716 
L 2478 3572 
L 1838 1716 
z
" transform="scale(0.015625)"/>
      <path id="DejaVuSans-Bold-33" d="M 588 4666 
L 2584 4666 
Q 3475 4666 3951 4270 
Q 4428 3875 4428 3144 
Q 4428 2409 3951 2014 
Q 3475 1619 2584 1619 
L 1791 1619 
L 1791 0 
L 588 0 
L 588 4666 
z
M 1791 3794 
L 1791 2491 
L 2456 2491 
Q 2806 2491 2997 2661 
Q 3188 2831 3188 3144 
Q 3188 3456 2997 3625 
Q 2806 3794 2456 3794 
L 1791 3794 
z
" transform="scale(0.015625)"/>
     </defs>
     <use xlink:href="#DejaVuSans-Bold-29"/>
     <use xlink:href="#DejaVuSans-Bold-4f" transform="translate(68.3125 0)"/>
     <use xlink:href="#DejaVuSans-Bold-58" transform="translate(102.59375 0)"/>
     <use xlink:href="#DejaVuSans-Bold-5b" transform="translate(173.78125 0)"/>
     <use xlink:href="#DejaVuSans-Bold-35" transform="translate(238.28125 0)"/>
     <use xlink:href="#DejaVuSans-Bold-28" transform="translate(315.28125 0)"/>
     <use xlink:href="#DejaVuSans-Bold-37" transform="translate(383.59375 0)"/>
     <use xlink:href="#DejaVuSans-Bold-24" transform="translate(444.046875 0)"/>
     <use xlink:href="#DejaVuSans-Bold-33" transform="translate(521.4375 0)"/>
    </g>
   </g>
   <g id="text_15">
    <!-- CFSA -->
    <g style="fill: #a4564a" transform="translate(340.881796 119.029986) scale(0.19 -0.19)">
     <defs>
      <path id="DejaVuSans-Bold-26" d="M 4288 256 
Q 3956 84 3597 -3 
Q 3238 -91 2847 -91 
Q 1681 -91 1000 561 
Q 319 1213 319 2328 
Q 319 3447 1000 4098 
Q 1681 4750 2847 4750 
Q 3238 4750 3597 4662 
Q 3956 4575 4288 4403 
L 4288 3438 
Q 3953 3666 3628 3772 
Q 3303 3878 2944 3878 
Q 2300 3878 1931 3465 
Q 1563 3053 1563 2328 
Q 1563 1606 1931 1193 
Q 2300 781 2944 781 
Q 3303 781 3628 887 
Q 3953 994 4288 1222 
L 4288 256 
z
" transform="scale(0.015625)"/>
     </defs>
     <use xlink:href="#DejaVuSans-Bold-26"/>
     <use xlink:href="#DejaVuSans-Bold-29" transform="translate(73.390625 0)"/>
     <use xlink:href="#DejaVuSans-Bold-36" transform="translate(141.703125 0)"/>
     <use xlink:href="#DejaVuSans-Bold-24" transform="translate(213.71875 0)"/>
    </g>
   </g>
   <g id="text_16">
    <!-- LLM -->
    <g style="fill: #6e4368" transform="translate(478.346516 316.298584) scale(0.19 -0.19)">
     <defs>
      <path id="DejaVuSans-Bold-2f" d="M 588 4666 
L 1791 4666 
L 1791 909 
L 3903 909 
L 3903 0 
L 588 0 
L 588 4666 
z
" transform="scale(0.015625)"/>
      <path id="DejaVuSans-Bold-30" d="M 588 4666 
L 2119 4666 
L 3181 2169 
L 4250 4666 
L 5778 4666 
L 5778 0 
L 4641 0 
L 4641 3413 
L 3566 897 
L 2803 897 
L 1728 3413 
L 1728 0 
L 588 0 
L 588 4666 
z
" transform="scale(0.015625)"/>
     </defs>
     <use xlink:href="#DejaVuSans-Bold-2f"/>
     <use xlink:href="#DejaVuSans-Bold-2f" transform="translate(63.71875 0)"/>
     <use xlink:href="#DejaVuSans-Bold-30" transform="translate(127.4375 0)"/>
    </g>
   </g>
  </g>
 </g>
 <defs>
  <clipPath id="p0258fb7652">
   <rect x="42.215843" y="7.2" width="524.52" height="424.872168"/>
  </clipPath>
 </defs>
</svg>
